<svg width="177" height="179" viewBox="0 0 177 179" fill="none" xmlns="http://www.w3.org/2000/svg">
<path d="M71.3798 82.55L10.0784 143.852C3.30721 150.622 3.30721 161.601 10.0784 168.372C16.8495 175.144 27.8277 175.144 34.5989 168.372L95.9001 107.071" stroke="white" stroke-width="10" stroke-linecap="round" stroke-linejoin="round"/>
<path d="M133.299 110.23L166.921 143.852C173.693 150.623 173.693 161.602 166.921 168.372C160.151 175.144 149.172 175.144 142.401 168.372L88.5776 114.55" stroke="white" stroke-width="10" stroke-linecap="round" stroke-linejoin="round"/>
<path d="M42.6192 41.7808L24.2288 47.911L5.83838 17.2603L18.0986 5L48.7494 23.3904L42.6192 41.7808ZM42.6192 41.7808L67.1554 66.317" stroke="white" stroke-width="10" stroke-linecap="round" stroke-linejoin="round"/>
<path d="M71.3809 82.5515C64.0657 63.8863 65.4959 39.3957 80.5765 24.3153C95.6567 9.23484 123.487 5.92489 138.813 15.1201L112.452 41.4807L110.002 68.4513L136.972 66.0012L163.333 39.6406C172.529 54.966 169.219 82.7968 154.138 97.8771C139.057 112.957 114.567 114.388 95.9021 107.072" stroke="white" stroke-width="10" stroke-linecap="round" stroke-linejoin="round"/>
</svg>
