<svg width="127" height="127" viewBox="0 0 127 127" fill="none" xmlns="http://www.w3.org/2000/svg">
<path d="M63.4999 81.3499C73.3585 81.3499 81.3499 73.3585 81.3499 63.4999C81.3499 53.6413 73.3585 45.6499 63.4999 45.6499C53.6413 45.6499 45.6499 53.6413 45.6499 63.4999C45.6499 73.3585 53.6413 81.3499 63.4999 81.3499Z" stroke="white" stroke-width="7.11821" stroke-linecap="round" stroke-linejoin="round"/>
<path d="M108.853 53.9526L102.322 38.1816L111.1 27.8L99.2 15.9L88.875 24.7236L72.7689 18.1L69.065 4H57.4369L53.6771 18.2867L37.9412 24.92L27.8 15.9L15.9 27.8L24.5476 38.4437L18.1164 54.2555L4 57.55V69.45L18.2866 73.3502L24.9187 89.0832L15.9 99.2L27.8 111.1L38.4574 102.415L53.9622 108.793L57.55 123H69.45L73.0468 108.799L88.8178 102.267C91.4466 104.146 99.2 111.1 99.2 111.1L111.1 99.2L102.27 88.7839L108.803 73.0081L122.999 69.3143L123 57.55L108.853 53.9526Z" stroke="white" stroke-width="7.11821" stroke-linecap="round" stroke-linejoin="round"/>
</svg>
