<svg width="163" height="136" viewBox="0 0 163 136" fill="none" xmlns="http://www.w3.org/2000/svg">
<path d="M6 89.5099V54.3473C6 49.4924 9.38028 45.5567 13.55 45.5567H33.914C35.4046 45.5567 36.8618 45.043 38.102 44.0803L69.762 19.5053C74.7797 15.6107 81.5 19.7985 81.5 26.8196V117.038C81.5 124.059 74.7797 128.247 69.762 124.352L38.102 99.7765C36.8618 98.8139 35.4046 98.3006 33.914 98.3006H13.55C9.38028 98.3006 6 94.365 6 89.5099Z" stroke="white" stroke-width="12"/>
<path d="M115.475 32.3718C115.475 32.3718 126.8 45.5578 126.8 67.5344C126.8 89.511 115.475 102.697 115.475 102.697" stroke="white" stroke-width="12" stroke-linecap="round" stroke-linejoin="round"/>
<path d="M138.125 6C138.125 6 157 27.9766 157 67.5345C157 107.092 138.125 129.069 138.125 129.069" stroke="white" stroke-width="12" stroke-linecap="round" stroke-linejoin="round"/>
</svg>
