<svg width="171" height="174" viewBox="0 0 171 174" fill="none" xmlns="http://www.w3.org/2000/svg">
<path d="M127.614 168H11.6249C8.51835 168 6 165.482 6 162.375V70.5022C6 67.3957 8.51835 64.8773 11.6249 64.8773H37.5707C44.1568 64.8773 50.2599 61.4217 53.6483 55.7743L79.0577 13.4248C84.5411 4.28689 97.4548 3.41822 104.112 11.7397C107.25 15.662 108.261 20.8753 106.817 25.6865L97.2327 57.6361C96.1499 61.2451 98.8526 64.8773 102.62 64.8773H145.511C157.873 64.8773 166.853 76.6333 163.6 88.5599L145.702 154.183C143.478 162.341 136.069 168 127.614 168Z" stroke="white" stroke-width="12" stroke-linecap="round"/>
<path d="M38.812 167.999V64.8762" stroke="white" stroke-width="12" stroke-linecap="round" stroke-linejoin="round"/>
</svg>
