<svg width="126" height="152" viewBox="0 0 126 152" fill="none" xmlns="http://www.w3.org/2000/svg">
<path d="M121 5L114.556 12.4737" stroke="white" stroke-width="9" stroke-linecap="round" stroke-linejoin="round"/>
<path d="M5 5L11.4444 12.4737" stroke="white" stroke-width="9" stroke-linecap="round" stroke-linejoin="round"/>
<path d="M121 109.632L114.556 102.158" stroke="white" stroke-width="9" stroke-linecap="round" stroke-linejoin="round"/>
<path d="M5 109.632L11.4444 102.158" stroke="white" stroke-width="9" stroke-linecap="round" stroke-linejoin="round"/>
<path d="M43.667 124.579H82.3337" stroke="white" stroke-width="9" stroke-linecap="round" stroke-linejoin="round"/>
<path d="M50.1113 147H75.8891" stroke="white" stroke-width="9" stroke-linecap="round" stroke-linejoin="round"/>
<path d="M62.9988 12.4736C37.2204 12.4736 24.0232 27.0495 24.3325 49.8421C24.4832 60.9546 27.5537 68.5263 33.9991 75.9999C40.4446 83.4736 43.6668 87.2105 43.6658 102.158H82.3322C82.3335 87.2112 85.5557 83.4736 91.9982 76.0007C98.442 68.527 101.515 60.9546 101.666 49.8421C101.975 27.0495 88.7779 12.4736 62.9988 12.4736Z" stroke="white" stroke-width="9" stroke-linecap="round" stroke-linejoin="round"/>
</svg>
